<!DOCTYPE svg PUBLIC "-//W3C//DTD SVG 1.1//EN" "http://www.w3.org/Graphics/SVG/1.1/DTD/svg11.dtd" [
	<!ENTITY ns_flows "http://ns.adobe.com/Flows/1.0/">
]><svg xmlns="http://www.w3.org/2000/svg" width="260" height="260" viewBox="-0.578125 0.1933594 260 260" overflow="visible" enable-background="new -0.578125 0.1933594 260 260"><path fill="#C1A52F" d="M234.872 140.723c1.328-7.096 2.033-14.411 2.033-21.892 0-65.21-52.863-118.074-118.074-118.074s-118.075 52.864-118.075 118.074c0 65.21 52.864 118.075 118.075 118.075 7.48 0 14.796-.705 21.89-2.035l94.15-94.148z"/><path fill="#AA9031" d="M234.872 140.723c1.328-7.096 2.033-14.411 2.033-21.892 0-65.21-52.863-118.074-118.074-118.074s-118.075 52.864-118.075 118.074c0 65.21 52.864 118.075 118.075 118.075 7.48 0 14.796-.705 21.89-2.035l94.15-94.148z"/><polyline points="237.6630859,237.6621094 237.6630859,0 0,0 0,237.6621094" fill="none"/><path fill="#fff" d="M107.162 107.891l-5.108-1.27-.061-.024c-.611-.204-.978-.637-.978-1.356l-.004-.049v-24.421c0-20.056-16.302-24.389-26.964-24.389-4.983 0-11.141 1.288-16.395 4.333l-1.308-3.186-19.706 2.122v7.73l8.735 1.494c.476.198.778.554.837 1.104l.001 14.864.014-.015v20.423l-.001.01c0 .719-.367 1.151-.978 1.357l-.117.046-4.829 1.227v9.154h27.918999999999997v-9.154l-4.67-1.305c-.562-.216-.898-.64-.898-1.325l-.003-.032v-24.829c0-10.4 9.377-10.4 11.351-10.4h.047c1.7 0 4.792.307 7.211 2.057 1.956 1.406 3.475 3.74 3.475 7.6v15.249h-.004v10.202l-.012.133c0 .72-.367 1.152-.978 1.356l-.009.005-4.616 1.289v9.154h28.049v-9.154zm15.029-27.491c0-10.4 9.314-10.4 11.276-10.4 3.063 0 10.663.991 10.663 9.657v.781l-21.939-.038zm0 12.503h38.24v-12.132c0-20.056-16.301-24.389-26.964-24.389-11.031 0-27.822 5.447-27.822 23.151v15.475c0 17.704 17.159 23.275 28.189 23.275 13.361 0 20.695-4.174 26.089-7.393v-9.692h-14.936s-4.289 4.085-11.153 4.085c-1.96 0-11.643-.742-11.643-11.142v-1.239zm61.005 8.048v-31.066h15.352v-12.265h-15.352v-13.634l-16.715 1.793v11.841h-5.585v12.265h5.585v31.314c0 16.219 14.857 16.219 19.934 16.219 6.809 0 14.609-3.715 14.609-3.715v-11.143h-8.791s-1.485 1.857-5.323 1.857c-2.476 0-3.714-.99-3.714-3.467"/><path fill="#fff" d="M66.206 157.713c-.193-1.055-.323-1.844-.39-2.371-.066-.525-.1-1.094-.1-1.701v-.357c-.92 1.439-2.208 2.615-3.862 3.527-1.655.914-3.603 1.369-5.843 1.369-2.226 0-3.981-.604-5.264-1.813-1.284-1.211-1.925-2.795-1.925-4.754 0-2.166.986-3.932 2.96-5.297 1.973-1.365 4.622-2.047 7.946-2.047h5.988v-3.518c0-2.004-.642-3.564-1.925-4.686-1.284-1.121-3.091-1.682-5.42-1.682-1.529 0-2.958.217-4.285.646-1.328.43-2.46 1.023-3.395 1.779l-.022 3.852h-1.202l.022-4.584c1.143-.846 2.489-1.541 4.04-2.082s3.165-.813 4.842-.813c2.582 0 4.652.652 6.21 1.959s2.337 3.191 2.337 5.654v12.064c0 .621.025 1.238.078 1.848.052.607.137 1.209.256 1.803h2.894v1.201h-3.94zm-10.195-.713c2.271 0 4.244-.512 5.921-1.535 1.677-1.023 2.938-2.441 3.784-4.252v-5.721h-5.921c-2.953 0-5.32.576-7.101 1.725-1.781 1.152-2.671 2.646-2.671 4.486 0 1.5.549 2.756 1.647 3.773 1.098 1.016 2.544 1.523 4.34 1.523zM75.516 134.83h-3.294l4.585 15.916 1.247 4.941.133.021 1.581-4.963 5.409-17.117h1.224l5.387 17.117 1.558 4.963.134-.021 1.291-4.941 4.541-15.916h-3.272v-1.201h7.189v1.201h-2.515l-6.655 22.883h-1.202l-5.943-18.098-1.069-4.072h-.133l-1.158 4.072-5.854 18.098h-1.202l-6.655-22.883h-2.493v-1.201h7.167v1.201zM122.663 157.713c-.193-1.055-.323-1.844-.39-2.371-.066-.525-.1-1.094-.1-1.701v-.357c-.92 1.439-2.208 2.615-3.862 3.527-1.655.914-3.603 1.369-5.843 1.369-2.226 0-3.981-.604-5.264-1.813-1.284-1.211-1.925-2.795-1.925-4.754 0-2.166.987-3.932 2.96-5.297 1.973-1.365 4.622-2.047 7.946-2.047h5.988v-3.518c0-2.004-.642-3.564-1.925-4.686-1.284-1.121-3.091-1.682-5.42-1.682-1.529 0-2.958.217-4.285.646-1.328.43-2.459 1.023-3.395 1.779l-.022 3.852h-1.202l.022-4.584c1.142-.846 2.489-1.541 4.04-2.082 1.55-.541 3.164-.813 4.841-.813 2.582 0 4.652.652 6.21 1.959s2.337 3.191 2.337 5.654v12.064c0 .621.025 1.238.078 1.848.052.607.137 1.209.256 1.803h2.894v1.201h-3.94zm-10.195-.713c2.271 0 4.244-.512 5.921-1.535 1.677-1.023 2.938-2.441 3.784-4.252v-5.721h-5.921c-2.953 0-5.32.576-7.101 1.725-1.781 1.152-2.671 2.646-2.671 4.486 0 1.5.549 2.756 1.647 3.773 1.098 1.016 2.545 1.523 4.34 1.523zM134.749 133.629l.223 4.186v.822c.668-1.721 1.662-3.061 2.983-4.018 1.32-.957 2.945-1.436 4.874-1.436.342 0 .657.025.947.078.289.051.537.107.745.166l-.134 1.068-1.559-.133c-2.151 0-3.898.693-5.241 2.082-1.343 1.387-2.216 3.215-2.616 5.486v14.58h3.629v1.201h-8.459v-1.201h3.629v-21.682h-3.629v-1.201h4.608zM163.366 153.861c-.785 1.322-1.877 2.371-3.271 3.15s-3.042 1.168-4.941 1.168c-2.834 0-5.049-1.082-6.645-3.248-1.595-2.168-2.393-5.105-2.393-8.814v-.469c0-3.814.802-6.844 2.404-9.094 1.603-2.248 3.828-3.371 6.678-3.371 1.9 0 3.531.434 4.896 1.303 1.365.867 2.456 2.059 3.271 3.572v-13.868h-3.627v-1.202h4.83v33.523h3.629v1.201h-4.787l-.045-3.852zm-16.003-7.744c0 3.324.657 5.963 1.97 7.924 1.313 1.959 3.246 2.938 5.799 2.938 2.092 0 3.832-.475 5.219-1.424 1.388-.949 2.394-2.219 3.016-3.807v-11.285c-.578-1.723-1.513-3.164-2.805-4.33-1.29-1.164-3.086-1.748-5.386-1.748-2.552 0-4.493 1.043-5.821 3.127-1.328 2.086-1.991 4.797-1.991 8.137v.469zM187.765 140.951h-1.201v-3.895c-.772-.861-1.756-1.521-2.949-1.98-1.195-.459-2.58-.691-4.152-.691-2.256 0-3.961.488-5.119 1.459-1.157.973-1.736 2.096-1.736 3.371 0 1.262.49 2.338 1.47 3.229s2.923 1.67 5.831 2.338c2.686.623 4.723 1.473 6.11 2.549 1.388 1.074 2.081 2.578 2.081 4.508 0 1.883-.771 3.412-2.314 4.584-1.544 1.172-3.592 1.758-6.144 1.758-1.751 0-3.365-.281-4.841-.844-1.478-.564-2.713-1.344-3.707-2.338v-4.297h1.202v3.629c.876.934 1.958 1.609 3.25 2.025s2.655.623 4.096.623c2.226 0 3.991-.52 5.297-1.559 1.306-1.037 1.96-2.24 1.96-3.605 0-1.275-.546-2.438-1.637-3.482-1.091-1.047-2.994-1.867-5.709-2.461-2.836-.594-4.902-1.383-6.199-2.371-1.299-.986-1.947-2.4-1.947-4.24 0-1.721.726-3.164 2.181-4.328 1.454-1.166 3.413-1.748 5.876-1.748 1.722 0 3.313.297 4.774.891s2.638 1.387 3.528 2.381v4.496zM77.585 201.477v-1.203l10.618-12.242c2.018-2.328 3.491-4.34 4.418-6.031.927-1.693 1.391-3.258 1.391-4.697 0-2.359-.653-4.199-1.958-5.52-1.306-1.32-3.213-1.982-5.721-1.982-2.656 0-4.712.781-6.166 2.338-1.455 1.559-2.182 3.576-2.182 6.055h-1.024l-.044-.133c-.075-2.627.753-4.861 2.482-6.701 1.728-1.84 4.04-2.76 6.934-2.76 2.686 0 4.841.76 6.466 2.281 1.625 1.521 2.437 3.662 2.437 6.422 0 1.795-.583 3.629-1.747 5.498-1.166 1.869-2.809 4.045-4.931 6.521l-9.282 10.84.044.111h16.45v-5.318h1.202v6.521h-19.388zM120.414 188.699c0 4.23-.856 7.494-2.571 9.795-1.714 2.299-4.136 3.449-7.268 3.449-3.131 0-5.564-1.154-7.301-3.461-1.736-2.309-2.604-5.568-2.604-9.783v-6.855c0-4.215.861-7.475 2.583-9.783 1.721-2.307 4.147-3.461 7.278-3.461 3.131 0 5.561 1.154 7.29 3.461 1.729 2.309 2.593 5.568 2.593 9.783v6.855zm-1.202-6.855c0-3.77-.742-6.719-2.226-8.848-1.484-2.129-3.636-3.195-6.456-3.195s-4.968 1.066-6.444 3.195c-1.477 2.129-2.215 5.078-2.215 8.848v6.813c0 3.738.746 6.688 2.237 8.848 1.492 2.158 3.647 3.238 6.466 3.238 2.805 0 4.945-1.076 6.422-3.229 1.477-2.15 2.215-5.104 2.215-8.857v-6.812zM124.201 200.273h6.522v-30.094l-7.523 1.691v-1.113l8.726-1.869v31.385h6.521v1.203h-14.246v-1.203zM154.789 191.438h5.608v1.201h-5.608v7.635h3.628v1.203h-8.458v-1.203h3.628v-7.635h-15.715v-.666l15.471-22.906h1.446v22.371zm-15.048 0h13.846v-20.68l-.134-.043-1.735 2.871-11.977 17.852z"/><rect x="187.313" y="86.173" transform="matrix(.707 .707 -.707 .707 187.958 -77.477)" fill="#C1A52F" width=".378" height="203.946"/><polyline points="305.1044922,200.5507812 180.2607422,200.5507812 180.2607422,255.7070312" fill="none"/><polyline points="305.1044922,200.5507812 180.2607422,200.5507812 180.2607422,255.7089844" fill="none"/><polyline points="305.8623047,199.7929688 179.5039062,199.7929688 179.5039062,256.4648438" fill="none"/></svg>